<svg width="40" height="23" viewBox="0 0 40 23" fill="none" xmlns="http://www.w3.org/2000/svg">
<path d="M37.8196 8.07967C37.8459 7.8906 37.9466 7.71768 38.0994 7.59895C38.2522 7.48021 38.4446 7.42539 38.6343 7.44655C38.8241 7.4677 38.9955 7.56309 39.111 7.71174C39.2266 7.86039 39.2766 8.05012 39.2503 8.23919L37.2844 22.3358C37.2715 22.4294 37.2401 22.5201 37.1921 22.6027C37.1441 22.6852 37.0805 22.758 37.0048 22.8168C36.9291 22.8756 36.8429 22.9193 36.7511 22.9454C36.6592 22.9715 36.5636 22.9795 36.4696 22.9689L22.3243 21.3917C22.1346 21.3706 21.9631 21.2752 21.8476 21.1266C21.7321 20.9779 21.682 20.7882 21.7084 20.5991C21.7347 20.41 21.8354 20.2371 21.9882 20.1184C22.141 19.9996 22.3334 19.9448 22.5231 19.966L34.9436 21.3518L24.6841 8.14897C19.159 1.0387 8.7541 -0.1214 1.44536 5.55795C1.29276 5.67654 1.10057 5.73129 0.91109 5.71016C0.721607 5.68904 0.550346 5.59376 0.434982 5.4453C0.319618 5.29684 0.2696 5.10735 0.295934 4.91852C0.322268 4.72969 0.422796 4.55699 0.575401 4.4384C8.52053 -1.73547 19.8287 -0.474657 25.8349 7.25472L36.0944 20.4576L37.8196 8.07967Z" fill="#B5B4A9" fill-opacity="0.35"/>
</svg>
