<svg width="128" height="128" viewBox="0 0 128 128" fill="none" xmlns="http://www.w3.org/2000/svg">
<path d="M93.3 60.0001C93.5 60.3001 94 60.1001 94 59.8001C94.6 54.4001 96.2 39.5001 106.8 36.3001C110.2 35.3001 113.6 37.7001 114 40.8001C114.7 45.8001 109 58.7001 109.5 70.5001C109.6 72.4001 112.8 92.5001 104.3 104.4C95.8 116.3 75.6 128.4 55.5 110C45.1 100.5 45.1 96.7001 32.2 83.4001C29.6 80.8001 19.2 69.4001 16.4 65.9001C12.7 61.2001 18.6 55.0001 23.1 58.2001C25.2 59.7001 43.8 75.3001 44.5 76.0001C45.9 77.2001 47.6 75.5001 46.6 74.3001C35.2 59.3001 24.2 45.8001 21.2 40.6001C18.2 35.4001 25.4 29.8001 29.6 34.3001C32.5 37.3001 54 62.4001 55 63.5001C56 64.6001 57.7 63.2001 57.1 61.8001C56.4 60.5001 39 30.2001 35.9 23.3001C33.2 17.2001 42.2 11.5001 46.4 17.8001C49.8 22.8001 68.8 54.4001 69.5 55.5001C70.4 57.1001 72.4 56.1001 71.6 54.3001C71 53.0001 59.3 21.0001 58.4 17.7001C56.8 11.9001 65.1 7.10006 69 13.7001C74.3 22.8001 84.8 50.6001 93.3 60.0001Z" fill="#E0BA94"/>
<path d="M10.6 81.3C13.7 90.5 18.4 96.2 26.1 101.4C27.5 102.4 26.7 104.4 25.1 103.7C17.9 100.8 9.9 94.4 8 81.7C7.7 80 10.1 79.7 10.6 81.3ZM16.6 75.8C19.7 85 24.4 90.7 32.1 95.9C33.5 96.9 32.7 98.9 31.1 98.2C23.9 95.3 15.9 88.9 14 76.2C13.8 74.5 16.1 74.2 16.6 75.8ZM93.5 34.6C91.1 25.2 86.7 19.2 79.4 13.6C78 12.6 79 10.6 80.6 11.3C87.6 14.6 95.2 21.6 96.2 34.4C96.3 36.1 93.9 36.3 93.5 34.6ZM100 29.8C97.6 20.4 93.2 14.4 85.9 8.79998C84.5 7.79998 85.5 5.79998 87.1 6.49998C94.1 9.79998 101.7 16.8 102.7 29.6C102.8 31.2 100.5 31.4 100 29.8Z" fill="#707070"/>
</svg>
