<svg width="40" height="23" viewBox="0 0 40 23" fill="none" xmlns="http://www.w3.org/2000/svg">
<path d="M38.1998 8.0848C38.2262 7.89573 38.3268 7.72281 38.4796 7.60408C38.6324 7.48534 38.8248 7.43052 39.0146 7.45167C39.2043 7.47283 39.3758 7.56822 39.4913 7.71687C39.6068 7.86552 39.6569 8.05525 39.6305 8.24432L37.6646 22.3409C37.6517 22.4346 37.6203 22.5253 37.5723 22.6078C37.5244 22.6903 37.4607 22.7631 37.385 22.8219C37.3093 22.8807 37.2231 22.9244 37.1313 22.9505C37.0394 22.9766 36.9438 22.9846 36.8498 22.974L22.7045 21.3969C22.5148 21.3757 22.3433 21.2803 22.2278 21.1317C22.1123 20.983 22.0622 20.7933 22.0886 20.6042C22.1149 20.4152 22.2156 20.2422 22.3684 20.1235C22.5212 20.0048 22.7136 19.95 22.9033 19.9711L35.3238 21.357L25.0644 8.15409C19.5392 1.04383 9.13432 -0.116273 1.82558 5.56308C1.67298 5.68166 1.48079 5.73642 1.29131 5.71529C1.10183 5.69416 0.930564 5.59889 0.8152 5.45043C0.699836 5.30196 0.649819 5.11248 0.676152 4.92365C0.702486 4.73482 0.803014 4.56211 0.95562 4.44353C8.90075 -1.73034 20.2089 -0.469531 26.2152 7.25985L36.4746 20.4627L38.1998 8.0848Z" fill="#F5E3E3"/>
</svg>
